<?xml version="1.0" encoding="UTF-8" standalone="no" ?>
<!DOCTYPE svg PUBLIC "-//W3C//DTD SVG 1.1//EN" "http://www.w3.org/Graphics/SVG/1.1/DTD/svg11.dtd">
<svg xmlns="http://www.w3.org/2000/svg" xmlns:xlink="http://www.w3.org/1999/xlink" version="1.1" width="1080" height="1080" viewBox="0 0 1080 1080" xml:space="preserve">
<desc>Created with Fabric.js 5.2.4</desc>
<defs>
</defs>
<g transform="matrix(1 0 0 1 540 540)" id="c355347f-2e72-4306-a12c-71178d69f033"  >
<rect style="stroke: none; stroke-width: 1; stroke-dasharray: none; stroke-linecap: butt; stroke-dashoffset: 0; stroke-linejoin: miter; stroke-miterlimit: 4; fill: rgb(255,255,255); fill-rule: nonzero; opacity: 1; visibility: hidden;" vector-effect="non-scaling-stroke"  x="-540" y="-540" rx="0" ry="0" width="1080" height="1080" />
</g>
<g transform="matrix(1 0 0 1 540 540)" id="1a997a3b-1ea1-4562-9168-7fe7bb087b88"  >
</g>
<g transform="matrix(4.01 0 0 4.01 540 522.6)" id="5a0c5f42-5be4-4c1c-8cd1-c28cdfb3b70c"  >
<path style="stroke: rgb(0,0,0); stroke-width: 0; stroke-dasharray: none; stroke-linecap: butt; stroke-dashoffset: 0; stroke-linejoin: miter; stroke-miterlimit: 4; fill: rgb(228,226,219); fill-rule: nonzero; opacity: 1;" vector-effect="non-scaling-stroke"  transform=" translate(-50, -50)" d="M 74.913 52.717 L 86.084 41.717 L 50.636 49.451 L 58.369 14.002000000000002 L 47.327 25.174 L 41.486 51.041 L 39.852 52.674 C 39.507999999999996 51.169 38.736 49.796 37.531 48.591 C 33.235 44.295 25.028999999999996 44.209 19.229 48.333 C 13.425999999999998 52.458999999999996 12.18 59.29 16.479 63.588 C 20.732999999999997 67.885 28.939999999999998 67.971 34.739999999999995 63.846000000000004 C 36.456999999999994 62.601000000000006 37.78999999999999 61.138000000000005 38.693 59.593 L 40.327 61.224000000000004 C 38.778999999999996 62.127 37.275 63.416000000000004 36.073 65.178 C 31.905 70.979 32.034 79.18599999999999 36.33 83.441 C 40.626 87.73700000000001 47.458999999999996 86.49000000000001 51.583 80.69 C 55.707 74.846 55.620999999999995 66.682 51.324999999999996 62.384 C 50.294999999999995 61.354 49.089999999999996 60.623 47.80199999999999 60.237 L 49.52199999999999 58.518 L 74.913 52.717 z M 23.008 58.604 C 19.227999999999998 54.824 27.52 49.666 31.085 53.189 C 34.395 56.67 26.401 60.837 23.008 58.604 z M 41.269 76.864 C 39.077999999999996 73.512 43.247 65.52000000000001 46.726 68.82900000000001 C 50.249 72.396 45.094 80.689 41.269 76.864 z" stroke-linecap="round" />
</g>
<g transform="matrix(1 0 0 1 540.5 540.5)" style="" id="92c32775-7f76-4ca7-b04f-0c39745190e5"  >
		<text xml:space="preserve" font-family="Raleway" font-size="105" font-style="normal" font-weight="900" style="stroke: none; stroke-width: 1; stroke-dasharray: none; stroke-linecap: butt; stroke-dashoffset: 0; stroke-linejoin: miter; stroke-miterlimit: 4; fill: rgb(239,214,125); fill-rule: nonzero; opacity: 1; white-space: pre;" ><tspan x="-327.18" y="32.98" >THE STUDIO.</tspan></text>
</g>
</svg>